<?xml version="1.0" standalone="no"?>
<!DOCTYPE svg PUBLIC "-//W3C//DTD SVG 20010904//EN"
 "http://www.w3.org/TR/2001/REC-SVG-20010904/DTD/svg10.dtd">
<svg version="1.0" xmlns="http://www.w3.org/2000/svg"
 width="150.000000pt" height="150.000000pt" viewBox="0 0 150.000000 150.000000"
 preserveAspectRatio="xMidYMid meet">
<metadata>
Created by potrace 1.14, written by Peter Selinger 2001-2017
</metadata>
<g transform="translate(0.000000,150.000000) scale(0.100000,-0.100000)"
fill="#000000" stroke="none">
<path d="M394 1146 c1 -48 4 -57 31 -77 17 -13 45 -39 63 -59 31 -33 32 -34
23 -8 -16 44 -47 100 -84 151 l-34 48 1 -55z"/>
<path d="M300 1068 c10 -24 21 -57 23 -75 5 -30 3 -32 -51 -54 -100 -40 -170
-90 -215 -154 -19 -27 -19 -29 -1 -14 28 24 107 59 165 74 51 14 51 14 33 -6
-18 -20 -18 -20 10 -9 79 30 229 30 345 1 46 -11 87 -18 92 -15 30 18 -22 71
-114 115 -33 15 -80 46 -107 68 -56 47 -134 95 -172 104 l-27 7 19 -42z"/>
<path d="M65 754 c-25 -20 -26 -24 -10 -22 19 3 51 35 43 43 -2 2 -17 -7 -33
-21z"/>
<path d="M9 693 c-27 -69 31 -140 137 -167 47 -12 49 -14 52 -49 2 -28 -1 -37
-12 -37 -9 0 -16 -7 -16 -15 0 -12 13 -15 60 -15 47 0 60 3 60 15 0 8 -4 15
-10 15 -5 0 -10 15 -10 34 0 32 3 35 32 38 34 3 46 23 33 56 -6 16 -7 16 -16
0 -6 -10 -16 -18 -24 -18 -13 0 -15 27 -6 93 1 4 17 7 37 7 27 0 35 -4 31 -14
-6 -15 16 -30 27 -19 3 4 6 19 6 35 l0 29 -97 -3 c-66 -2 -98 -7 -101 -15 -2
-7 3 -13 12 -13 11 0 15 -7 12 -22 -3 -13 -5 -35 -5 -49 -1 -26 -2 -26 -48
-18 -56 11 -99 35 -126 71 -16 22 -18 31 -9 57 14 39 -4 42 -19 4z"/>
<path d="M1002 650 c-12 -5 -25 -16 -28 -25 -4 -8 -12 -15 -20 -15 -18 0 -18
-26 0 -33 8 -3 13 -14 10 -24 -2 -10 -5 -38 -8 -62 -3 -36 1 -49 20 -68 12
-12 29 -21 36 -19 7 3 25 7 40 10 32 7 28 33 -5 32 -19 -1 -22 4 -21 34 1 75
8 95 33 100 22 4 45 33 24 29 -29 -5 -43 3 -43 26 0 27 -3 28 -38 15z"/>
<path d="M448 594 c-72 -38 -75 -146 -5 -175 50 -21 108 -10 145 28 19 18 33
72 26 100 -14 56 -103 82 -166 47z m94 -53 c9 -62 -35 -132 -64 -103 -20 20
-16 107 6 131 24 26 52 13 58 -28z"/>
<path d="M666 603 c-11 -11 -6 -23 10 -23 12 0 14 -7 10 -27 -3 -16 -7 -45 -8
-66 -1 -25 -8 -42 -20 -48 -33 -18 -19 -29 36 -29 53 0 81 15 57 29 -6 4 -9
24 -7 47 2 21 5 47 5 57 1 21 43 40 53 23 9 -14 -2 -120 -13 -124 -5 -2 -9
-10 -9 -18 0 -10 14 -14 55 -14 42 0 55 3 55 15 0 8 -7 15 -16 15 -12 0 -14 7
-9 28 11 53 8 124 -6 133 -19 12 -56 11 -79 -1 -11 -6 -21 -6 -24 -1 -6 10
-81 13 -90 4z"/>
<path d="M1120 597 c0 -6 6 -15 14 -21 17 -14 57 -161 46 -173 -4 -4 -20 -29
-35 -55 l-27 -48 29 0 c28 0 33 8 98 140 37 77 73 140 80 140 24 0 11 25 -14
27 -40 3 -55 -5 -42 -21 9 -10 6 -24 -13 -56 l-24 -43 -12 44 c-9 31 -9 44 -1
47 6 2 11 9 11 16 0 9 -17 13 -55 13 -30 -1 -55 -5 -55 -10z"/>
<path d="M1385 586 c-34 -34 -31 -53 15 -97 31 -30 36 -40 26 -48 -16 -14 -42
-5 -50 15 -9 23 -26 6 -26 -24 0 -26 2 -27 48 -26 57 2 88 16 97 44 10 31 -2
56 -40 81 -19 13 -35 28 -35 32 0 17 32 19 49 3 17 -16 19 -16 25 -1 13 35 6
42 -39 43 -37 2 -51 -3 -70 -22z"/>
</g>
</svg>
